<svg xmlns="http://www.w3.org/2000/svg" fill="none" viewBox="34.88 50.92 186.24 154.16">
<path fill-rule="evenodd" clip-rule="evenodd" d="M199.139 193.794H202.704C205.379 193.794 206.268 194.684 207.16 197.062L210.428 205.08H217.852L212.804 194.387C211.912 192.605 211.615 192.011 210.129 191.119C210.129 191.119 215.475 189.635 215.18 183.692C215.18 175.376 208.643 174.188 203.001 174.486H192.011V205.079H198.249V193.792L199.139 193.794ZM208.644 184.585C208.348 187.853 205.675 188.743 202.409 188.743H198.251V179.534H202.409C205.675 179.534 208.35 180.426 208.644 183.692V184.585ZM168.842 205.08H186.962V200.032H175.082V174.487H168.844V205.08H168.842ZM142.703 179.239H146.267C151.318 179.239 156.366 183.098 156.366 189.932C156.366 196.469 151.318 200.328 146.267 200.328H142.703V179.239ZM136.465 205.08H145.079C154.288 205.08 162.603 202.11 162.603 189.932C162.603 177.457 154.286 174.487 145.079 174.487H136.465V205.08ZM80.3243 112.702H109.136L88.6409 133.196H59.829L80.3243 112.702ZM119.533 102.306L170.623 50.9189V102.306H221.119L179.831 143.593H136.761L85.3724 194.981V143.593H34.8779L76.166 102.306H119.533ZM123.988 112.702H152.8L132.01 133.196H103.197L123.988 112.702ZM167.356 112.702H196.169L175.674 133.196H146.861L167.356 112.702ZM160.228 75.8687L133.791 102.305H160.228V75.8687ZM95.7702 169.732L122.207 143.298L95.7702 143.594V169.732Z" fill="black"/>
</svg>